<?xml version="1.0" encoding="UTF-8"?>
<svg data-bbox="1 1 400 400" viewBox="0 0 400 400" xmlns="http://www.w3.org/2000/svg" data-type="ugc">
    <g>
        <path d="M220 401H1V1h400v400zm-21.92-175.92s.09.023.71-.044c.425-.637.85-1.275 1.556-2.528 2.295-2.473 4.59-4.946 7.576-7.434 1.34-1.715 2.68-3.43 4.076-5.076 0 0-.068-.055.635-.05.41-.72.821-1.44 1.568-2.695 1.298-1.4 2.597-2.8 4.585-4.249.694-1.05 1.388-2.099 2.211-3.013 0 0-.142-.122.567-.069.439-.702.877-1.404 1.636-2.682 1.941-2.076 3.883-4.153 6.502-6.275.402-.703.804-1.406 1.486-2.69 1.355-1.393 2.71-2.786 4.757-4.208a370 370 0 0 0 5.6-7.191c1.803-1.968 3.607-3.935 6.096-5.912.412-.7.823-1.401 1.354-1.97 0 0-.133-.118.577-.088.43-.705.86-1.41 1.576-2.648.68-.721 1.359-1.442 2.716-2.22 1.356-1.714 2.713-3.428 4.358-5.747 1.94-2.09 3.879-4.182 6.476-6.318.43-.664.86-1.327 1.464-2.457.196-.294.467-.47 1.51-.54.402-.721.804-1.442 1.55-2.754 7.363-8.026 14.726-16.051 22.741-24.186 1.628-2.088 3.255-4.177 5.114-6.78.411-.38.823-.758 1.767-1.16.418-.316.835-.631 1.985-.894.54 1.043 1.08 2.087 1.543 3.161 0 0-.01.082-.733-.118-1.092 1.733-2.184 3.466-3.552 5.8L87.117 377.08c2.405.34 3.21.553 4.014.554 14.662.018 29.327.149 43.983-.153 1.988-.041 4.538-1.834 5.798-3.566 10.262-14.102 20.315-28.359 30.364-42.615 30.714-43.576 61.385-87.182 92.101-130.756 20.29-28.783 40.627-57.531 60.943-86.294 15.045-21.3 30.107-42.588 45.125-63.907 4.726-6.708 9.334-13.5 14.508-20.995-3.078 0-5.17 0-7.986-.283-7.027-1.154-13.973-2.236-20.14 2.98-3.127 2.645-6.702 4.75-9.93 7.283-3.814 2.991-7.472 6.181-11.579 9.442 0 0-.356.205-1.065.22-4.463 3.008-9.015 5.896-13.359 9.067-2.822 2.061-5.342 4.535-8.347 7.099 0 0-.308.32-1.014.164-5.582 3.702-11.234 7.304-16.708 11.16-1.946 1.37-3.46 3.354-5.542 5.241 0 0-.338.241-1.05.294-4.756 3.215-9.577 6.338-14.236 9.688-1.916 1.378-3.48 3.245-5.677 5.19-.1.157-.2.314-.85.475-.416.362-.831.723-1.948.922-.321.067-.708.041-.955.215-11.588 8.172-23.179 16.341-34.715 24.586-.87.622-1.345 1.794-2.359 2.973 0 0-.306.317-1.006.184-6.084 4.119-12.208 8.18-18.22 12.404-1.223.86-2.022 2.324-3.508 3.722-.154.09-.308.182-1.137.019-4.602 3.205-9.267 6.323-13.777 9.653-2.02 1.49-3.727 3.404-6.08 5.376-.158.1-.316.2-1.085.019-.432.597-.864 1.194-1.41 1.825 0 0-.067.099-.773-.062-4.758 3.646-9.517 7.292-14.758 11.18-.154.092-.309.184-1.124-.003-2.24 1.831-4.479 3.662-6.61 5.593 0 0-.118-.086-.825-.071-1.5 1.227-3 2.455-4.87 3.854 0 0-.338.232-1.044.272a5200 5200 0 0 0-17.27 12.967s-.027-.014-.735.026c-4.234 2.815-8.551 5.514-12.669 8.49-2.276 1.646-4.216 3.757-6.847 6-.841.642-1.683 1.284-3.22 1.725-4.755 3.643-9.51 7.286-14.762 11.182-.158.099-.315.198-1.098-.01-1.263 1.146-2.526 2.291-3.665 3.549 0 0-.139-.092-.854-.065-6.413 4.345-12.86 8.643-19.21 13.078-1.098.768-1.79 2.12-3.154 3.388-.286.192-.573.383-1.561.631-3.422 2.65-6.844 5.3-10.663 8.132 0 0-.363.242-1.062.084-2.842 2.25-5.684 4.499-9.112 7.072-2.786 1.954-5.572 3.908-8.691 5.333-.852.868-1.704 1.735-2.83 2.802 0 0-.332.076-1.052-.158-1.899 1.253-3.68 2.76-5.721 3.705-4.235 1.962-5.183 5.143-5.09 9.588.274 13.108.072 26.225.127 39.339.008 1.87.403 3.74.757 6.804 2.952-1.76 5.196-2.71 6.954-4.225 4.134-3.562 8.076-7.353 11.986-11.163.574-.559.549-1.732.9-2.575 0 0-.035-.104.682.064.415-.697.83-1.394 1.385-2 0 0-.088-.141.63.006.408-.7.815-1.401 1.337-2.041 0 0-.056-.117.673.06 2.082-2.03 4.163-4.06 6.371-6.031 0 0-.078-.117.655.029 3.409-3.033 6.818-6.066 10.36-8.96 0 0-.082-.174.634-.039 3.405-3.037 6.81-6.074 10.325-9.01 0 0-.049-.141.656.014.479-.67.957-1.342 1.749-2.378.255-.203.542-.342 1.567-.445Q83.875 270.501 89 266s.003.002.715-.017c3.436-2.984 6.872-5.967 10.284-8.983 0 0 .032.024.758.042 4.3-3.777 8.599-7.554 12.998-11.304 0 0-.047-.092.678.074 1.768-1.688 3.536-3.375 5.486-4.83 0 0-.156-.25.573-.11a258 258 0 0 1 4.21-4.178s.008-.066.726.11c4.137-3.677 8.275-7.354 12.712-11.4.25-.207.532-.343 1.562-.422 3.034-2.73 6.068-5.461 9.268-8 0 0-.16-.189.563-.07 6.049-4.552 12.226-8.946 18.12-13.692 11.959-9.63 23.839-19.361 35.584-29.25 3.189-2.684 5.78-6.08 8.882-9.414 0 0 .326-.145 1.042.162 3.24-2.97 6.479-5.938 10.095-9.192.268-.168.537-.332 1.509-.544 3.719-3.37 7.438-6.738 11.41-10.342 0 0 .327-.107 1.058.134 7.202-5.73 14.364-11.511 21.637-17.15 1.863-1.445 4.076-2.437 6.078-2.954-1.228 1.27-2.442 2.555-3.686 3.81-4.77 4.814-9.549 9.618-14.275 14.508 0 0-.081-.05-.78.005-1.208.833-2.516 1.554-3.61 2.517-10.15 8.93-20.334 17.823-30.344 26.908-2.925 2.655-5.325 5.89-8.142 8.598 0 0 .148.277-.563.145-.44.687-.881 1.374-1.547 1.844 0 0 .22.224-.506.12-2.162 1.487-4.506 2.768-6.454 4.496-7.448 6.609-14.837 13.289-22.101 20.098-2.785 2.61-5.176 5.64-7.943 8.289 0 0 .201.185-.506.117-.433.691-.867 1.382-1.49 1.876 0 0 .195.192-.54.103a254 254 0 0 1-4.09 4.273s-.019.083-.73-.156c-5.51 4.581-11.12 9.047-16.473 13.803-1.942 1.726-3.266 4.148-5.045 6.027 0 0 .138.248-.583.086-6.1 5.703-12.2 11.405-18.52 16.86 0 0 .213.25-.505.117-4.793 3.94-9.7 7.752-14.326 11.879-1.953 1.741-3.316 4.145-5.145 5.995 0 0 .186.26-.514.123-.86.938-1.72 1.875-2.535 2.883 0 0-.071-.045-.702.009-.45.637-.899 1.275-1.304 1.992 0 0-.074-.052-.772-.002-1.4.847-2.955 1.516-4.175 2.572-5.72 4.948-11.478 9.866-16.973 15.059-5.206 4.92-10.102 10.17-15.085 15.36 0 0-.085-.05-.776.02-1.153.632-2.473 1.073-3.43 1.923-9.583 8.508-19.135 17.051-28.578 25.712-.625.573-.297 2.184-.31 4.25-.04 9.388-.081 18.775-.603 28.632.72.708 1.44 1.417 3.04 2.083 11.744.014 23.489.029 35.97.25 1.18-1.341 2.36-2.684 3.703-3.86 0 0-.171-.158.535-.103.422-.696.845-1.391 1.458-1.888 0 0-.195-.195.507-.143 4.17-4.314 8.486-8.499 12.456-12.99 2.496-2.823 4.473-6.104 6.814-9.083 0 0-.075-.144.646.012.411-.703.822-1.405 1.408-1.97 0 0-.13-.18.57-.027.78-.561 1.691-1.004 2.319-1.702 9.304-10.342 18.626-20.668 27.817-31.11 3.352-3.808 6.373-7.908 9.497-11.964 0 0 .09.048.764-.026 6.016-6.281 12.087-12.511 17.999-18.89 1.027-1.108 1.378-2.843 2.212-4.121 0 0-.179-.157.521-.098 2.733-2.516 5.746-4.796 8.12-7.615 2.407-2.858 4.184-6.248 6.359-9.287 0 0-.133-.105.565-.078.45-.68.901-1.36 1.702-2.595 1.658-1.732 3.316-3.464 5.645-5.278.99-1.404 1.981-2.808 3.264-4.784 1.34-1.393 2.68-2.785 4.688-4.227a109 109 0 0 1 2.545-3.553c2.314-2.452 4.63-4.904 7.584-7.466.647-1.028 1.294-2.056 2.006-3.013 0 0-.077-.056.61-.04.435-.686.87-1.37 1.385-1.96 0 0-.097-.08.604-.056.433-.7.865-1.399 1.435-2.509 0 0 .29-.321.873-.407.399-.618.797-1.236 1.172-1.944" fill="#FEFEFF"/>
        <path d="M253.186 164.095a51 51 0 0 1-2.485 2.5c-.911.984-1.375 1.633-1.839 2.281 0 0 .133.117-.238.103-.804.656-1.236 1.325-1.669 1.994-1.803 1.968-3.607 3.935-5.922 6.184-2.267 2.5-4.023 4.72-5.78 6.939-1.355 1.393-2.71 2.786-4.526 4.518-.875 1.025-1.289 1.71-1.702 2.397-1.942 2.076-3.884 4.153-6.293 6.579-.938.992-1.407 1.636-1.877 2.28 0 0 .142.12-.251.103-1.098 1.014-1.803 2.046-2.508 3.079-1.298 1.4-2.597 2.8-4.375 4.534-.917 1.008-1.354 1.683-1.791 2.357 0 0 .068.055-.296.058-1.71 1.698-3.056 3.393-4.402 5.088-2.295 2.473-4.59 4.946-7.352 7.718-.88.964-1.295 1.63-1.71 2.296 0 0-.09-.024-.403.007-.69.686-1.066 1.343-1.442 1.999 0 0-.29.321-.678.569-.84.911-1.294 1.575-1.748 2.238 0 0 .097.078-.265.056-.81.641-1.26 1.304-1.71 1.967 0 0 .077.056-.289.055-1.003 1.04-1.641 2.082-2.28 3.124-2.315 2.452-4.63 4.904-7.49 7.621-1.254 1.29-1.96 2.313-2.667 3.337-1.34 1.393-2.68 2.785-4.497 4.529-1.47 1.74-2.464 3.127-3.458 4.515-1.658 1.732-3.316 3.464-5.458 5.53a19 19 0 0 0-1.916 2.234s.133.105-.254.12c-5.189 5.619-9.99 11.223-14.792 16.828 0 0 .179.157-.24.121-5.432 5.348-10.52 10.663-15.42 16.147-1.901 2.128-3.377 4.638-5.047 6.974 0 0-.09-.048-.404.002-9.992 10.548-19.736 20.985-29.313 31.574-3.761 4.159-7.148 8.656-10.706 12.999 0 0 .13.18-.249.167-.836.6-1.293 1.213-1.75 1.827 0 0 .076.144-.31.168-6.786 7.349-13.186 14.673-19.586 21.997 0 0 .195.195-.196.166-.851.6-1.312 1.232-1.773 1.862 0 0 .17.158-.232.133-1.615 1.21-2.826 2.444-4.037 3.678-11.744-.014-23.489-.029-35.8-.313-1.041-.94-1.516-1.611-1.991-2.282.04-9.388.08-18.775.377-28.78 6.687-6.523 13.174-12.369 19.531-18.351 4.498-4.233 8.821-8.651 13.222-12.987 0 0 .085.05.407.01 7.44-6.253 14.638-12.38 21.649-18.713 5.115-4.62 9.982-9.515 14.96-14.288 0 0 .074.052.378.015.747-.694 1.189-1.352 1.63-2.009 0 0 .072.045.381.015 1.182-.926 2.054-1.822 2.926-2.717 0 0-.186-.259.25-.178 6.875-5.887 13.314-11.855 19.753-17.823 0 0-.212-.25.239-.15 6.564-5.534 12.676-11.166 18.79-16.797 0 0-.14-.248.282-.195 7.55-6.512 14.679-13.078 21.808-19.644 0 0 .02-.083.373-.175 1.726-1.426 3.098-2.759 4.47-4.092 0 0-.194-.192.21-.138.866-.585 1.33-1.223 1.793-1.862 0 0-.201-.185.237-.138 4.6-3.474 8.878-6.868 12.899-10.543 8.036-7.346 15.932-14.847 23.886-22.283 0 0-.219-.224.188-.172.888-.553 1.37-1.159 1.85-1.764 0 0-.147-.277.278-.193 1.516-.665 2.706-1.306 3.686-2.182 9.744-8.724 19.503-17.432 29.145-26.268 3.34-3.06 6.368-6.465 9.539-9.712 0 0 .081.05.403.018 5.196-4.26 10.163-8.384 14.926-12.734 10.974-10.023 21.848-20.155 32.942-30.386.4-.356.61-.58 1.117-.884.772-.703 1.232-1.338 1.846-2.125.153-.153.32-.551.613-.592.998-.674 1.704-1.307 2.7-2.021.703-.462 1.116-.844 1.839-1.296.87-.655 1.43-1.24 2.251-1.95 1.029-.977 1.796-1.83 2.83-2.814.718-.51 1.171-.89 1.951-1.333 2.222-1.942 4.117-3.818 6.214-6.07-.032-.827-.266-1.28-.52-1.743-.02-.01-.004.03.248.377.793.229 1.334.11 2.176-.06.796-.634 1.29-1.216 2.108-1.936 1.63-1.46 2.936-2.78 4.502-4.14.898-.613 1.537-1.188 2.494-1.872 1.056-.838 1.796-1.567 2.86-2.366 1.792-1.404 3.26-2.737 4.877-4.195.332-.307.5-.502.979-.77.821-.708 1.319-1.355 1.781-2.02-.035-.017 0 .053.318-.007.836-.693 1.354-1.326 2.2-2.029 2.718-2.054 5.108-4.038 7.762-5.926.484.396.705.695.824 1.326-1.683 2.435-3.266 4.537-5.168 6.778-4.59 5.574-8.861 11.01-13.44 16.603-6.383 6.842-12.459 13.525-18.851 20.244-.757.695-1.197 1.353-1.858 2.252-1.78 2.036-3.338 3.832-5.23 5.671-1.432 1.385-2.532 2.726-3.816 4.204-.418.34-.616.573-1.09.89-.668.732-1.025 1.41-1.383 2.087-.411.379-.823.758-1.68 1.472-2.07 2.408-3.694 4.48-5.32 6.554-7.363 8.026-14.726 16.051-22.575 24.424-.91 1.037-1.335 1.727-1.759 2.417-.348.06-.62.236-1.217.802-.842.925-1.28 1.577-1.72 2.23-1.94 2.09-3.879 4.182-6.296 6.629-1.837 2.053-3.198 3.75-4.558 5.448" fill="#70319F"/>
        <path d="M376.691 29.348h7.262c-5.174 7.495-9.782 14.287-14.508 20.995-15.018 21.319-30.08 42.607-45.125 63.907-20.316 28.763-40.654 57.511-60.943 86.294-30.716 43.574-61.387 87.18-92.101 130.756-10.05 14.256-20.102 28.513-30.364 42.615-1.26 1.732-3.81 3.525-5.798 3.566-14.656.302-29.32.171-43.983.153-.804 0-1.609-.213-4.013-.554 70.746-85.523 140.857-170.279 211.407-255.477 1.57-2.013 2.704-3.585 3.837-5.158 0 0 .01-.082.357-.182 2.13-2.371 3.915-4.642 5.91-7.022.462-.33.607-.607.96-1.065 7.738-9.444 15.163-18.763 22.927-28.112 5.016-5.902 9.694-11.774 14.67-17.671 2.187-2.437 4.076-4.848 5.952-7.325-.015-.065-.016.068.321.053 1.096-1.053 1.854-2.09 2.913-3.266 3.38-4.073 6.457-8.006 9.792-12.152 3.68-3.594 7.104-6.975 10.527-10.355" fill="#0EBCF3"/>
        <path d="M265.223 98.453c.416-.362.831-.723 1.58-.82.956-.028 1.58-.322 2.483-.803 2.638-2.011 5.026-3.803 7.353-5.67 3.79-3.04 7.54-6.13 11.306-9.198 0 0 .338-.24.877-.217 2.057-.897 3.673-1.689 5.075-2.762 5.816-4.456 11.567-8.997 17.342-13.507 0 0 .308-.32.844-.432 2.712-1.503 4.847-2.963 7.072-4.267 3.042-1.78 6.152-3.443 9.64-5.042a38 38 0 0 1 4.42 6.151c-.846 1.25-1.596 2.22-2.472 3.33-.304.319-.48.499-1.01.722-1.234 1.053-2.115 2.064-3.05 3.103-.055.028-.094.144-.416.278-1.49 1.186-2.659 2.238-4.14 3.356-1.56 1.161-2.807 2.257-4.159 3.437-.105.084-.037.344-.367.493-.749.91-1.168 1.672-1.587 2.433 0 0-.015-.04-.368-.146-.982.601-1.61 1.309-2.248 1.912-.008-.104-.216-.127-.602-.119-1.965 1.557-3.545 3.105-5.145 4.665-.02.012-.062.038-.412.097-5.848 4.832-11.345 9.605-16.947 14.25-.103-.129-.411-.012-.736.06-.91.708-1.497 1.342-2.206 2.001-.124.025-.29.214-.639.257-2.143 1.687-3.938 3.332-5.721 4.981.011.005 0-.018-.323.027-1.184.945-2.044 1.845-3.105 2.865-.45.317-.647.556-1.12.899-1.01.796-1.687 1.532-2.57 2.554-.265.428-.396.583-.374.712.047.277.172.54.329.812.063.002.016-.116-.322-.293-.562-.055-.787.068-1.357.139-6.874 5.208-13.495 10.358-19.902 15.761-5.377 4.534-10.506 9.363-15.744 14.061 0 0-.327.107-.796.273-4.193 3.52-7.918 6.874-11.642 10.228-.271.16-.54.324-1.344.67-3.783 3.022-7.029 5.865-10.275 8.707l-.783.348c-2.308 1.593-4.192 2.94-6.002 4.378-6.704 5.328-13.384 10.686-20.478 16.007-1.296 1.042-2.185 2.109-3.227 3.473-5.104 4.344-10.113 8.324-14.993 12.458-6.107 5.173-12.107 10.473-18.153 15.718 0 0 .161.189-.231.08-.802-.061-1.212-.013-1.823-.183-.677.423-1.151 1.064-1.784 1.99-2.1 2.293-4.04 4.303-5.982 6.314-.317.067-.6.203-1.342.653-4.64 3.823-8.789 7.402-12.937 10.981 0 0-.008.066-.366.128-1.765 1.367-3.173 2.671-4.58 3.976 0 0 .155.25-.279.165-2.215 1.527-3.996 3.138-5.777 4.749 0 0 .047.092-.33.154-4.7 3.782-9.023 7.503-13.347 11.224 0 0-.032-.024-.37-.002-3.778 3.008-7.218 5.994-10.658 8.98 0 0-.003-.002-.352.005-3.77 3.01-7.19 6.015-10.61 9.019-.318.074-.605.213-1.325.628-.973.812-1.48 1.411-1.989 2.01 0 0 .049.142-.325.134-1.696.735-3.018 1.477-4.76 2.205a11072 11072 0 0 1-38.325-5.424l-1.095-1.804c1.525-.998 3.092-1.939 4.57-3.004 12.088-8.719 24.152-17.472 36.24-26.193 14.102-10.175 28.28-20.246 42.317-30.511 20.169-14.751 40.21-29.677 60.363-44.451 12.138-8.9 24.444-17.57 36.519-26.552 1.991-1.48 3.18-4.041 4.746-6.088.006.014-.01 0 .367.004 5.601-2.327 11.504-3.778 13.76-10.448 1.397-1.027 2.616-1.79 4.227-2.546 2.443-1.37 4.495-2.746 6.603-4.097.057.026-.056-.01.297-.014.793-.718 1.233-1.43 1.849-2.416 2.328-1.704 4.48-3.133 6.99-4.561.874-.652 1.393-1.306 2.066-2.239 1.27-.782 2.384-1.286 3.874-1.781.89-.689 1.404-1.386 2.106-2.355 2.827-2.538 5.467-4.804 8.107-7.07" fill="#E80D9F"/>
        <path d="M214.97 135.961c-1.56 2.062-2.748 4.622-4.74 6.103-12.074 8.983-24.38 17.653-36.518 26.552-20.153 14.774-40.194 29.7-60.363 44.45-14.037 10.266-28.215 20.337-42.317 30.512-12.088 8.721-24.152 17.474-36.24 26.193-1.478 1.065-3.045 2.006-4.57 3.004l1.095 1.804c12.634 1.803 25.269 3.607 38.196 5.737-1.732 2.34-3.755 4.352-5.778 6.365 0 0 .083.174-.32.154-3.831 2.932-7.261 5.883-10.691 8.834 0 0 .078.117-.31.168-2.496 1.968-4.604 3.886-6.712 5.803 0 0 .056.117-.302.129-.804.635-1.25 1.258-1.697 1.882 0 0 .088.141-.28.136-.825.609-1.28 1.223-1.734 1.837 0 0 .035.104-.347.12-5.708 4.748-11.034 9.48-17.407 15.141 0-13.433.352-25.376-.13-37.286-.298-7.394.312-13.755 7.82-17.391.469-.228.611-1.13.906-1.719 0 0 .332-.076.788-.17 1.207-.79 1.957-1.485 2.707-2.18 2.786-1.953 5.572-3.907 9.008-5.993 3.487-2.349 6.324-4.565 9.161-6.782 0 0 .363-.242.918-.303 3.973-2.75 7.391-5.439 10.81-8.127.286-.192.573-.383 1.442-.704 7.887-5.541 15.192-10.953 22.496-16.364 0 0 .14.092.41.08 1.52-1.084 2.77-2.157 4.02-3.23.157-.1.314-.198 1.059-.47 5.348-3.717 10.11-7.263 14.87-10.809.842-.641 1.684-1.283 3.133-2.13 6.944-4.913 13.28-9.619 19.616-14.325 0 0 .027.014.376.005 6.108-4.339 11.867-8.668 17.627-12.998 0 0 .337-.232.866-.208 2.036-1.281 3.542-2.587 5.049-3.893 0 0 .118.086.418.066 2.524-1.778 4.747-3.536 6.97-5.294.155-.092.31-.184 1.047-.435 5.349-3.726 10.115-7.293 14.881-10.86 0 0 .066-.099.383-.143.78-.529 1.242-1.014 1.704-1.5.159-.1.317-.2 1.068-.46 2.532-1.358 4.593-2.4 6.39-3.785 4.58-3.528 9.041-7.21 13.55-10.83.153-.09.307-.182 1.047-.413 3.932-2.184 7.279-4.229 10.626-6.273M45.514 286.991l4.511-4.99c-4.919 0-8.38.073-11.837-.022-2.926-.081-4.336 1.139-4.202 4.126.082 1.822-.104 3.662.06 5.473.094 1.052.468 2.806 1.022 2.935 1.08.253 2.672-.058 3.525-.768 2.287-1.904 4.296-4.143 6.92-6.754" fill="#EF0E9D"/>
        <path d="M333.312 61.605a427 427 0 0 1-4.344-6.164c1.508-2.427 3.25-4.447 4.994-6.466 0 0 .356-.205.905-.19 8.082-5.274 15.716-10.429 23.108-15.909 4.036-2.992 8.089-3.654 13.81-1.85-2.588 2.032-4.489 3.46-6.32 4.973-5.92 4.893-11.815 9.817-18.039 14.838-4.917 3.662-9.515 7.215-14.114 10.768" fill="#F00C9B"/>
        <path d="M32.171 264.372c.065.706-.077 1.608-.547 1.836-7.507 3.636-8.117 9.997-7.818 17.391.48 11.91.129 23.853.129 37.286 6.373-5.661 11.7-10.393 17.358-15.164.08.85.105 2.023-.469 2.582-3.91 3.81-7.852 7.6-11.986 11.163-1.758 1.515-4.002 2.465-6.954 4.225-.354-3.064-.75-4.933-.757-6.804-.055-13.114.147-26.231-.127-39.339-.093-4.445.855-7.626 5.09-9.588 2.04-.946 3.822-2.452 6.081-3.588" fill="#FBB6E1"/>
        <path d="M347.744 50.728c5.906-4.912 11.8-9.836 17.722-14.73 1.83-1.512 3.731-2.94 6.318-4.972-5.72-1.804-9.773-1.142-13.809 1.85-7.392 5.48-15.026 10.635-22.917 15.831a153 153 0 0 1 10.838-9.38c3.229-2.532 6.804-4.637 9.93-7.281 6.168-5.217 13.114-4.135 20.503-2.84-3.061 3.522-6.485 6.903-10.506 10.534-4.915 3.982-9.185 7.771-13.595 11.388-.803.659-2.184.612-3.423.62a6.5 6.5 0 0 0-1.06-1.02" fill="#E775C7"/>
        <path d="M185.587 185.17c6.689-5.347 13.369-10.705 20.073-16.033 1.81-1.438 3.694-2.785 5.883-4.244-2.526 2.998-5.117 6.393-8.306 9.077-11.745 9.889-23.625 19.62-35.584 29.25-5.894 4.746-12.071 9.14-18.482 13.633 5.684-5.305 11.684-10.605 17.791-15.778 4.88-4.134 9.89-8.114 15.322-12.567a128 128 0 0 0 3.303-3.338" fill="#FBB6E1"/>
        <path d="M289.88 99.685s.309-.117.874.063c1.791.197 3.018.214 4.244.231-10.915 10.088-21.79 20.22-32.763 30.243-4.763 4.35-9.73 8.475-14.95 12.693 4.428-4.817 9.207-9.621 13.977-14.435 1.244-1.255 2.458-2.54 3.712-4.144.026-.334.01-.336.364-.344 2.586-2.011 4.82-4.015 7.297-6.066.618-.533.992-1.02 1.372-1.929a8 8 0 0 0-.164-1.248s.047.118.382.186c2.253-1.695 4.17-3.457 6.272-5.431.288-.983.39-1.754.494-2.526 0 0 .01.023.354-.002 2.134-1.685 3.924-3.345 5.715-5.004 0 0 .166-.19.678-.181 1.055-.697 1.599-1.401 2.143-2.106" fill="#D9C7E5"/>
        <path d="M88.044 347.726c3.207-4.42 6.594-8.917 10.355-13.076 9.577-10.589 19.32-21.026 29.337-31.53-2.833 3.962-5.854 8.062-9.206 11.87-9.191 10.442-18.513 20.768-27.817 31.11-.628.698-1.54 1.14-2.67 1.626" fill="#D9C7E5"/>
        <path d="M246.556 142.966c-2.82 3.22-5.848 6.623-9.19 9.684-9.641 8.836-19.4 17.544-29.144 26.268-.98.876-2.17 1.517-3.599 2.313 2.305-2.924 4.705-6.158 7.63-8.813 10.01-9.085 20.194-17.979 30.344-26.908 1.094-.963 2.402-1.684 3.96-2.544" fill="#D9C7E5"/>
        <path d="M201.858 183.177a856 856 0 0 1-23.524 22.335c-4.021 3.675-8.299 7.07-12.8 10.639 2.23-2.791 4.621-5.821 7.406-8.432 7.264-6.81 14.653-13.489 22.101-20.098 1.948-1.728 4.292-3.01 6.817-4.444" fill="#D9C7E5"/>
        <path d="M274.002 116.42c-.375.486-.75.973-1.77 1.492-2.846 2.051-5.047 4.07-7.247 6.088 0 0 .015.002.015-.006-2.054 1.193-4.267 2.185-6.13 3.63-7.273 5.639-14.435 11.42-22.003 17.03 4.873-4.819 10.002-9.648 15.379-14.182 6.407-5.403 13.028-10.553 20.147-15.478.93.698 1.27 1.061 1.61 1.425" fill="#FBB6E1"/>
        <path d="M91.566 281.968c-4.629 4.748-9.496 9.642-14.611 14.263-7.01 6.334-14.209 12.46-21.674 18.671 4.686-5.108 9.582-10.358 14.788-15.278 5.495-5.193 11.252-10.11 16.973-15.059 1.22-1.056 2.775-1.725 4.524-2.597" fill="#D9C7E5"/>
        <path d="M54.553 314.97c-4.055 4.3-8.378 8.718-12.876 12.95-6.357 5.983-12.844 11.83-19.582 17.883-.192-.98-.52-2.591.105-3.164 9.443-8.66 18.995-17.204 28.577-25.712.958-.85 2.278-1.291 3.776-1.958" fill="#D9C7E5"/>
        <path d="M264.873 98.372c-2.29 2.347-4.93 4.613-8.076 7.233-1.058.991-1.61 1.628-2.162 2.264a60 60 0 0 0-3.817 1.851 29 29 0 0 0-2.105 2.176 784 784 0 0 0-6.95 4.655c-.957 1.02-1.42 1.674-1.885 2.329 0 0 .113.035-.299-.006-2.488 1.341-4.563 2.724-6.64 4.106a816 816 0 0 1-4.18 2.602c-.986.282-1.448.25-1.91.22.658-.917 1.134-2.09 2.003-2.71 11.536-8.246 23.127-16.415 34.715-24.587.247-.174.634-.148 1.306-.133" fill="#E775C7"/>
        <path d="M128.453 303.037c1.333-2.299 2.809-4.809 4.71-6.937 4.9-5.484 9.988-10.8 15.335-16.23-.33 1.397-.681 3.132-1.708 4.24-5.912 6.379-11.983 12.609-18.337 18.927" fill="#D9C7E5"/>
        <path d="M157.996 222.34c-6.773 6.686-13.902 13.252-21.366 19.877 1.272-2.045 2.596-4.467 4.538-6.193 5.353-4.756 10.964-9.222 16.828-13.683" fill="#D9C7E5"/>
        <path d="M66.149 371.834c6.049-7.35 12.449-14.674 19.17-22.07-1.89 3.002-3.867 6.283-6.363 9.107-3.97 4.49-8.286 8.675-12.807 12.963" fill="#D9C7E5"/>
        <path d="M310.886 65.398c-5.422 4.588-11.173 9.129-16.99 13.585-1.4 1.073-3.017 1.865-4.888 2.671 1.358-1.82 2.871-3.804 4.817-5.174 5.474-3.856 11.126-7.458 17.061-11.082" fill="#E775C7"/>
        <path d="M333.607 48.982c-1.388 2.012-3.131 4.032-5.046 6.344-3.254 2.008-6.364 3.67-9.406 5.451-2.225 1.304-4.36 2.764-6.897 4.13 2.294-2.315 4.814-4.789 7.636-6.85 4.344-3.171 8.896-6.06 13.713-9.075" fill="#E775C7"/>
        <path d="M116.874 259.18c-6.08 6.034-12.52 12.002-19.295 18.015 1.294-2.057 2.657-4.46 4.61-6.202 4.626-4.127 9.533-7.94 14.685-11.813" fill="#D9C7E5"/>
        <path d="M135.9 242.218c-5.752 5.712-11.864 11.344-18.319 17.001a401 401 0 0 1 18.32-17.001" fill="#D9C7E5"/>
        <path d="M89.504 223.88c-6.947 5.397-14.252 10.809-21.896 16.256.539-1.046 1.23-2.397 2.329-3.165 6.35-4.435 12.796-8.733 19.567-13.091" fill="#E775C7"/>
        <path d="M214.977 135.976c-3.353 2.03-6.7 4.074-10.386 6.152.654-1.152 1.453-2.617 2.676-3.476 6.012-4.223 12.136-8.285 18.497-12.022-3.414 3.37-7.105 6.357-10.797 9.346 0 0 .016.014.01 0" fill="#E775C7"/>
        <path d="M149.173 279.862c4.452-5.635 9.253-11.24 14.381-16.917-1.727 3.083-3.504 6.473-5.911 9.331-2.374 2.819-5.387 5.099-8.47 7.586" fill="#D9C7E5"/>
        <path d="M202.96 142.52c-4.17 3.748-8.632 7.429-13.212 10.957-1.797 1.385-3.858 2.427-6.138 3.66 1.508-1.687 3.216-3.6 5.235-5.091 4.51-3.33 9.175-6.448 14.115-9.526" fill="#E775C7"/>
        <path d="M287.59 81.989c-3.411 3.042-7.161 6.131-10.95 9.171a98 98 0 0 1-7.673 5.605c-.789.022-.982-.075-1.175-.173 1.724-1.644 3.289-3.51 5.205-4.889 4.659-3.35 9.48-6.473 14.593-9.714" fill="#E775C7"/>
        <path d="M132.615 193.002c-5.982 4.686-12.318 9.392-18.992 14.133 1.753-1.866 3.693-3.977 5.97-5.623 4.117-2.976 8.434-5.675 13.022-8.51" fill="#E775C7"/>
        <path d="M150.619 180.009a377 377 0 0 1-17.28 12.965c5.405-4.318 11.166-8.632 17.28-12.965" fill="#E775C7"/>
        <path d="M100.394 257.033c3.961-3.73 8.285-7.45 12.934-11.246a243 243 0 0 1-12.934 11.246" fill="#FBB6E1"/>
        <path d="M109.872 209.337c-4.413 3.646-9.174 7.192-14.273 10.783 4.416-3.597 9.17-7.24 14.273-10.783" fill="#E775C7"/>
        <path d="M125.069 236.716c3.79-3.667 7.937-7.246 12.429-10.884-3.795 3.618-7.933 7.295-12.43 10.884" fill="#FBB6E1"/>
        <path d="M215.344 135.98c3.315-2.993 7.006-5.98 10.77-9.284.073-.315.38-.632.557-.764.64-.1 1.102-.068 1.911-.086-1.734 6.356-7.637 7.807-13.238 10.134" fill="#EF0E9D"/>
        <path d="M179.85 159.285c-4.413 3.647-9.179 7.214-14.287 10.819a236 236 0 0 1 14.287-10.82" fill="#E775C7"/>
        <path d="M224.414 155.008c3.374-3.328 7.099-6.682 11.166-10.085a184 184 0 0 1-11.166 10.085" fill="#FBB6E1"/>
        <path d="M53.09 295.742c3.064-3.024 6.494-5.975 10.259-8.976a129 129 0 0 1-10.259 8.976" fill="#FBB6E1"/>
        <path d="M78.394 275.011q4.602-4.487 10.258-9.003c-3.068 2.993-6.486 5.991-10.258 9.003" fill="#FBB6E1"/>
        <path d="M89.359 265.992q4.627-4.465 10.314-8.954-4.627 4.466-10.314 8.954" fill="#FBB6E1"/>
        <path d="M212.803 164.564c2.888-2.995 6.134-5.838 9.728-8.717-2.891 2.933-6.13 5.902-9.728 8.717" fill="#FBB6E1"/>
        <path d="M308.419 109.35c-1.785 2.271-3.57 4.542-5.662 6.897-.848-.958-1.388-2.002-2.323-3.364-.406-.515-.417-.71-.429-.905.163-.263.361-.496 1.118-.835 1.19-.138 1.856-.142 2.902-.155 1.719-.552 3.056-1.095 4.394-1.637" fill="#D5D6ED"/>
        <path d="M64.093 286.749c1.665-2.08 3.688-4.093 5.84-6.419 1.451-1.055 2.773-1.797 4.414-2.583a133 133 0 0 1-10.254 9.002" fill="#FBB6E1"/>
        <path d="M65.572 240.962a129 129 0 0 1-10.26 8.008c3.065-2.68 6.487-5.33 10.26-8.008" fill="#E775C7"/>
        <path d="M146.957 216.908c.41-.048.819-.096 1.538-.131-2.725 2.744-5.76 5.474-9.15 8.21 1.585-2.004 3.526-4.014 5.923-6.405.867-.812 1.278-1.243 1.689-1.674" fill="#FBB6E1"/>
        <path d="M53.846 249.285c-2.488 2.296-5.325 4.512-8.52 6.7 2.486-2.28 5.328-4.53 8.52-6.7" fill="#E775C7"/>
        <path d="M235.6 184.082c1.41-2.205 3.166-4.425 5.25-6.63-1.415 2.214-3.16 4.415-5.25 6.63" fill="#D9C7E5"/>
        <path d="M46.066 301.729c1.744-2.006 3.852-3.924 6.285-5.922a52 52 0 0 1-6.285 5.922" fill="#FBB6E1"/>
        <path d="M163.945 170.52c-1.893 1.898-4.116 3.656-6.694 5.384 1.885-1.861 4.125-3.692 6.694-5.384" fill="#E775C7"/>
        <path d="M291.638 122.09c1.299-2.018 2.924-4.091 4.878-6.242-1.298 2.01-2.925 4.1-4.878 6.242" fill="#D9C7E5"/>
        <path d="M114.07 245.729c1.42-1.694 3.2-3.305 5.324-4.947-1.425 1.655-3.193 3.342-5.324 4.947" fill="#FBB6E1"/>
        <path d="M207.577 215.081c1.001-1.687 2.347-3.382 4.03-5.114-1.004 1.678-2.345 3.392-4.03 5.114" fill="#D9C7E5"/>
        <path d="M253.525 164.067c1.021-1.67 2.382-3.367 4.075-5.118-1.023 1.66-2.38 3.375-4.075 5.118" fill="#D9C7E5"/>
        <path d="M156.533 175.896c-1.153 1.298-2.66 2.604-4.51 3.8 1.157-1.338 2.657-2.566 4.51-3.8" fill="#E775C7"/>
        <path d="M302 116.345c-.77 1.673-1.904 3.245-3.338 4.958a22.7 22.7 0 0 1 3.339-4.958" fill="#D5D6ED"/>
        <path d="M162.829 218.149c-1.006 1.377-2.378 2.71-4.062 4.126 1.023-1.335 2.359-2.753 4.062-4.126" fill="#D9C7E5"/>
        <path d="M120.128 240.802c1.043-1.375 2.45-2.68 4.183-4.045-1.057 1.331-2.438 2.723-4.183 4.045" fill="#FBB6E1"/>
        <path d="M171.579 255.079c.658-1.347 1.652-2.735 2.976-4.188-.66 1.339-1.65 2.743-2.976 4.188" fill="#D9C7E5"/>
        <path d="M93.978 220.563c-.937 1.226-2.186 2.3-3.769 3.327.93-1.19 2.193-2.335 3.769-3.327" fill="#E775C7"/>
        <path d="M59.928 377.75c.843-1.337 2.054-2.571 3.587-3.864-.859 1.284-2.039 2.627-3.587 3.865" fill="#D9C7E5"/>
        <path d="M35.86 261.876c-.584.958-1.334 1.653-2.403 2.342.532-.872 1.384-1.74 2.402-2.342" fill="#FBB6E1"/>
        <path d="M189.675 235.063c.319-.987.957-2.029 1.928-3.105-.314.994-.96 2.022-1.928 3.105" fill="#D9C7E5"/>
        <path d="M218.441 203.028c.36-1.009 1.065-2.04 2.098-3.123-.365 1-1.059 2.05-2.098 3.123" fill="#D9C7E5"/>
        <path d="M96.88 277.18c-.522.962-1.394 1.858-2.599 2.748.528-.942 1.389-1.88 2.6-2.749" fill="#D9C7E5"/>
        <path d="M179.532 246.052q.56-1.502 2.12-3.065c-.373 1.002-1.08 2.021-2.12 3.065" fill="#D9C7E5"/>
        <path d="M21.528 375.286c.716.437 1.19 1.107 1.793 2.07a5.85 5.85 0 0 1-1.793-2.07" fill="#D9C7E5"/>
        <path d="M93.609 279.976c-.127.63-.57 1.288-1.338 1.943.123-.64.573-1.279 1.338-1.943" fill="#D9C7E5"/>
        <path d="M75.08 277.743c.155-.678.663-1.277 1.48-1.906-.17.641-.65 1.312-1.48 1.906" fill="#FBB6E1"/>
        <path d="M192.268 231.946c.105-.67.555-1.333 1.326-2.021-.113.66-.548 1.344-1.326 2.021" fill="#D9C7E5"/>
        <path d="M164.218 262.898c.128-.647.606-1.28 1.392-1.97-.142.623-.593 1.303-1.392 1.97" fill="#D9C7E5"/>
        <path d="M299.695 112.033c.322.14.333.335.373.823-.389.609-.806.924-1.49 1.25.09-.664.448-1.342 1.117-2.073" fill="#D9C7E5"/>
        <path d="M44.062 303.725c.088-.698.534-1.32 1.281-1.987-.107.659-.514 1.36-1.28 1.987" fill="#FBB6E1"/>
        <path d="M64.182 373.864c.108-.658.569-1.29 1.325-1.99-.127.626-.55 1.321-1.325 1.99" fill="#D9C7E5"/>
        <path d="M42.048 305.708c.096-.698.55-1.312 1.304-1.967-.115.657-.53 1.354-1.304 1.967" fill="#FBB6E1"/>
        <path d="M86.056 349.72c.095-.69.552-1.304 1.3-1.973-.118.647-.529 1.35-1.3 1.974" fill="#D9C7E5"/>
        <path d="M221.21 199.896c.115-.67.584-1.314 1.362-2.019-.13.641-.57 1.343-1.363 2.019" fill="#D9C7E5"/>
        <path d="M264.37 151.995c.11-.63.548-1.282 1.303-1.973-.114.624-.545 1.287-1.304 1.973" fill="#D9C7E5"/>
        <path d="M181.985 157.582c-.157.626-.62 1.111-1.342 1.623.173-.57.605-1.167 1.342-1.623" fill="#E775C7"/>
        <path d="M249.217 168.891c.109-.663.573-1.312 1.34-2.03-.125.635-.555 1.34-1.34 2.03" fill="#D9C7E5"/>
        <path d="M247.298 170.969c.09-.665.522-1.334 1.266-2.055-.1.649-.511 1.35-1.266 2.055" fill="#D9C7E5"/>
        <path d="M267.556 96.743c.429-.053.622.044 1.133.208-.306.36-.93.654-1.611.681.042-.425.142-.582.478-.89" fill="#EF0E9D"/>
        <path d="M203.903 181.227c-.126.671-.607 1.277-1.383 1.939.147-.63.587-1.318 1.383-1.94" fill="#D9C7E5"/>
        <path d="M229.363 190.988c.075-.663.49-1.35 1.224-2.084-.081.655-.483 1.358-1.224 2.084" fill="#D9C7E5"/>
        <path d="M212.282 209.946c.085-.677.522-1.352 1.27-2.093-.098.654-.508 1.375-1.27 2.093" fill="#D9C7E5"/>
        <path d="M164.845 216.16c-.11.672-.574 1.31-1.346 1.993.125-.646.559-1.337 1.346-1.994" fill="#D9C7E5"/>
        <path d="M198.48 225.07c.105-.633.52-1.299 1.26-1.956-.1.647-.525 1.285-1.26 1.956" fill="#D9C7E5"/>
        <path d="M196.616 227.066c.085-.613.462-1.27 1.163-1.911-.074.632-.472 1.25-1.163 1.911" fill="#D9C7E5"/>
        <path d="M194.25 229.928c.103-.675.556-1.339 1.329-2.045-.114.657-.546 1.357-1.33 2.045" fill="#D9C7E5"/>
        <path d="M267.324 148.981c.077-.685.501-1.375 1.24-2.117-.088.67-.49 1.39-1.24 2.117" fill="#D9C7E5"/>
        <path d="M332.177 80.094c-7.425 9.319-14.85 18.638-22.652 27.703.192-2.383.76-4.513 1.595-6.836.47-.789.678-1.385.884-1.982 6.076-6.683 12.152-13.366 18.67-19.89a9.3 9.3 0 0 1 1.503 1.005" fill="#D5D6ED"/>
        <path d="M332.516 80.064c-.692-.252-1.046-.533-1.534-1.133 4.136-5.753 8.407-11.189 13.428-16.738 1.326 0 1.902.112 2.478.225-4.678 5.872-9.356 11.744-14.372 17.646" fill="#B2D3EF"/>
        <path d="M295.177 99.836c-1.405.126-2.632.11-4.32.04 5.037-4.824 10.534-9.597 16.505-13.952.564 1.065.654 1.713.745 2.361-.768.853-1.535 1.706-2.913 2.686-1.143.757-1.677 1.387-2.211 2.017-.414.382-.827.764-1.69.967-1.245.654-2.039 1.487-2.833 2.32 0 0-.167.4-.62.555-.921.834-1.39 1.512-1.857 2.19a7 7 0 0 1-.806.816" fill="#F1C1E5"/>
        <path d="M348.93 52.02c1.114-.28 2.495-.233 3.298-.892 4.41-3.617 8.68-7.406 13.338-11.174a121 121 0 0 1-9.547 11.937c-1.402 1.2-2.15 2.222-2.897 3.245 0 0 0-.133-.377-.11a218 218 0 0 1-3.497.032c-.22-.299-.44-.598-.91-1.274.031-.84.311-1.302.592-1.765" fill="#A2B0DD"/>
        <path d="M348.805 51.747c-.156.735-.436 1.197-.732 1.94-2.404 2.265-4.794 4.25-7.865 6.314-1.176.746-1.67 1.412-2.165 2.078 0 0-.035-.07-.34-.032-.792.712-1.279 1.385-1.765 2.059-.154.208-.323.403-1.083.722a53 53 0 0 1-3.986.248c.75-.97 1.5-1.94 2.346-3.19 4.696-3.834 9.294-7.387 14.211-11.05.63.141.943.39 1.38.911" fill="#EB98D3"/>
        <path d="M349.147 55.39c1.14-.335 2.18-.34 3.613-.3-1.498 2.455-3.387 4.866-5.575 7.303-.873-.088-1.449-.2-2.456-.338 1.152-2.128 2.735-4.23 4.418-6.665" fill="#A7C9EA"/>
        <path d="M310.855 101.153c-.57 2.13-1.138 4.261-1.643 6.77.024.711-.12.988-.583 1.318-1.548.652-2.885 1.195-4.465 1.406.095-1.472.432-2.612.77-3.752 1.558-1.796 3.116-3.592 5.094-5.578.42-.19.827-.164.827-.164" fill="#FEFEFF"/>
        <path d="M313.182 80.677s.208.023.704.165c1.148.19 1.799.237 2.45.284-1.895 1.877-3.79 3.753-6.02 5.462-.333-.168-.332-.635-.158-.924z" fill="#DDAADA"/>
        <path d="M318.074 76.028c1.246-1.096 2.493-2.192 4.64-3.176 1.293.22 1.686.327 2.078.435-1.306 1.321-2.613 2.642-4.399 3.78a74 74 0 0 1-2.32-1.039" fill="#F1C1E5"/>
        <path d="M330.743 65.216c1.263-.177 2.4-.215 3.963-.264-1.04 1.322-2.508 2.655-4.355 4.005-.378.016-.486-.092-.442-.46.088-1.112.133-1.857.177-2.602.177-.18.353-.36.657-.679" fill="#C8A6D5"/>
        <path d="M304.6 106.938c-.004 1.097-.341 2.237-.817 3.72-.804.343-1.47.347-2.476.348.76-1.342 1.86-2.683 3.294-4.068" fill="#D9C7E5"/>
        <path d="M325.052 73.249c-.652-.07-1.045-.178-2.025-.463.581-1.23 1.75-2.281 3.407-2.891.59.825.692 1.208.794 1.59-.639.576-1.278 1.15-2.176 1.764" fill="#DDAADA"/>
        <path d="M298.753 96.235a7.06 7.06 0 0 1 2.25-2.2c-.546.893-1.252 1.526-2.25 2.2" fill="#D9C7E5"/>
        <path d="M317.968 76.112c.719.201 1.332.486 2.102 1.093-.338.904-.832 1.486-1.672 1.631-.386-1.084-.427-1.732-.467-2.38 0 0-.068-.26.037-.344" fill="#DDAADA"/>
        <path d="M327.546 71.377c-.42-.274-.521-.657-.79-1.616-.167-.576-.128-.692.323-.718a672 672 0 0 0 2.786-.178l.162.162a18 18 0 0 1-2.481 2.35" fill="#C8A6D5"/>
        <path d="M296.294 98.952c.157-.61.625-1.288 1.393-1.97-.16.632-.621 1.267-1.393 1.97" fill="#D9C7E5"/>
        <path d="M336.262 64.046c.162-.614.649-1.287 1.476-1.982-.157.627-.655 1.274-1.476 1.982" fill="#C8A6D5"/>
        <path d="M338.361 62.019c.177-.606.671-1.272 1.519-1.948-.165.622-.683 1.255-1.519 1.948" fill="#C8A6D5"/>
        <path d="M311.12 100.961c-.265.192-.673.165-.87.116.241-.709.681-1.367 1.438-2.062.11.56-.097 1.157-.568 1.946" fill="#D9C7E5"/>
        <path d="M303.292 92.918c.225-.56.759-1.19 1.641-1.822-.211.582-.772 1.167-1.641 1.822" fill="#D9C7E5"/>
        <path d="M316.538 80.752c-.853.327-1.504.28-2.643.194.14-.745.77-1.453 1.77-2.045.607.57.841 1.023.873 1.85" fill="#F1C1E5"/>
        <path d="M317.601 76.605c.37.499.41 1.147.496 2.282-.497.607-1.038.727-1.83.498.166-1.108.585-1.87 1.334-2.78" fill="#F1C1E5"/>
        <path d="M309.984 85.953s-.001.467.006.7c-.446.612-.899.991-1.618 1.501-.356-.517-.446-1.165-.66-2.29-.123-.476-.082-.502.289-.288a9.5 9.5 0 0 0 1.983.377" fill="#D9C7E5"/>
        <path d="M353.46 55.12c.41-1.007 1.157-2.03 2.258-3.09-.405 1.002-1.163 2.038-2.259 3.09" fill="#A7C9EA"/>
        <path d="M280.312 109.715c-1.917 1.763-3.834 3.525-6.15 5.218-.492-.34-.617-.603-.664-.88-.022-.13.109-.284.706-.726 1.213-1.065 1.89-1.833 2.568-2.6.143-.283.34-.522 1.212-.764 1.19-.113 1.76-.18 2.328-.248" fill="#FEFEFF"/>
        <path d="M310.158 85.664c-.711.235-1.249.18-2.136-.1 1.23-1.774 2.809-3.322 4.774-4.879-.564 1.557-1.514 3.123-2.638 4.979" fill="#F1C1E5"/>
        <path d="M233.331 122.986c1.685-1.388 3.76-2.77 6.191-4.137-1.696 1.391-3.748 2.768-6.19 4.137" fill="#EF0E9D"/>
        <path d="M286.711 102.015c-1.442 1.616-3.232 3.276-5.378 4.956 1.44-1.624 3.235-3.269 5.378-4.956" fill="#F9A0D8"/>
        <path d="M329.909 68.497c-.822.419-1.601.47-2.776.518.485-1.013 1.366-2.024 2.6-3.077.309.702.264 1.447.176 2.56" fill="#EB98D3"/>
        <path d="M280.497 109.504c-.754.278-1.322.346-2.313.338.439-.974 1.299-1.874 2.483-2.82.22.728.118 1.5-.17 2.482" fill="#F9A0D8"/>
        <path d="M185.182 185.144c-.536 1.004-1.477 1.982-2.746 3.068.56-.96 1.45-2.026 2.746-3.068" fill="#EF0E9D"/>
        <path d="M276.441 110.787c-.347.707-1.024 1.475-2.033 2.255.347-.723 1.025-1.46 2.033-2.255" fill="#F9A0D8"/>
        <path d="M249.07 111.898c.187-.614.731-1.226 1.593-1.9-.2.594-.719 1.248-1.594 1.9" fill="#EF0E9D"/>
        <path d="M289.556 99.758c-.219.632-.763 1.336-1.694 2.008.197-.667.783-1.301 1.694-2.008" fill="#F9A0D8"/>
        <path d="M255.01 107.878c.177-.645.729-1.282 1.6-2-.196.614-.71 1.311-1.6 2" fill="#EF0E9D"/>
        <path d="M146.755 216.69c-.21.65-.62 1.08-1.328 1.608.177-.544.651-1.185 1.328-1.608" fill="#EF0E9D"/>
        <path d="M240.23 118.875c.112-.65.576-1.304 1.357-2.05-.123.62-.563 1.332-1.356 2.05" fill="#EF0E9D"/>
        <path d="M274.007 115.997c-.345.058-.685-.305-1.27-.952-.02-.405.206-.528.768-.473.394.453.45.728.502 1.425" fill="#FEFEFF"/>
        <path d="M45.261 287.244c-2.372 2.358-4.38 4.597-6.668 6.5-.853.711-2.445 1.022-3.525.77-.554-.13-.928-1.884-1.023-2.936-.163-1.811.023-3.65-.059-5.473-.134-2.987 1.276-4.207 4.202-4.126 3.457.095 6.918.022 11.837.022a787 787 0 0 1-4.764 5.243" fill="#E8069C"/>
        <path d="M265.338 123.992c1.847-2.01 4.048-4.029 6.651-6.033-1.83 2.018-4.065 4.022-6.651 6.033" fill="#FEFEFF"/>
    </g>
</svg>
